<svg width="3174" height="2893" viewBox="0 0 3174 2893" fill="none" xmlns="http://www.w3.org/2000/svg">
<path d="M1053 477C1047.52 477 1042.26 474.788 1038.39 470.849C1034.51 466.911 1032.33 461.57 1032.33 456C1032.33 450.43 1034.51 445.089 1038.39 441.151C1042.26 437.212 1047.52 435 1053 435C1058.48 435 1063.74 437.212 1067.61 441.151C1071.49 445.089 1073.67 450.43 1073.67 456C1073.67 461.57 1071.49 466.911 1067.61 470.849C1063.74 474.788 1058.48 477 1053 477ZM1053 477V498M1053 498C984.118 519 949.667 567.993 949.667 645C949.667 672.951 966.882 708 1001.33 708H1104.67H1108.28C1140.32 705.501 1156.33 671.964 1156.33 645C1156.33 569.967 1121.88 519 1053 498ZM1115 540L1053 603M970.333 708L940.429 723.204C936.996 724.947 934.109 727.626 932.091 730.942C930.072 734.258 929.002 738.079 929 741.978V792H1177V741.978C1177 738.079 1175.93 734.258 1173.91 730.942C1171.89 727.626 1169 724.947 1165.57 723.204L1135.67 708H970.333Z" stroke="#006CA9" stroke-width="30" stroke-linecap="round" stroke-linejoin="round"/>
<path d="M2055 1483C2049.52 1483 2044.26 1480.79 2040.39 1476.85C2036.51 1472.91 2034.33 1467.57 2034.33 1462C2034.33 1456.43 2036.51 1451.09 2040.39 1447.15C2044.26 1443.21 2049.52 1441 2055 1441C2060.48 1441 2065.74 1443.21 2069.61 1447.15C2073.49 1451.09 2075.67 1456.43 2075.67 1462C2075.67 1467.57 2073.49 1472.91 2069.61 1476.85C2065.74 1480.79 2060.48 1483 2055 1483ZM2055 1483V1504M2055 1504C1986.12 1525 1951.67 1573.99 1951.67 1651C1951.67 1678.95 1968.88 1714 2003.33 1714H2106.67H2110.28C2142.32 1711.5 2158.33 1677.96 2158.33 1651C2158.33 1575.97 2123.88 1525 2055 1504ZM2117 1546L2055 1609M1972.33 1714L1942.43 1729.2C1939 1730.95 1936.11 1733.63 1934.09 1736.94C1932.07 1740.26 1931 1744.08 1931 1747.98V1798H2179V1747.98C2179 1744.08 2177.93 1740.26 2175.91 1736.94C2173.89 1733.63 2171 1730.95 2167.57 1729.2L2137.67 1714H1972.33Z" stroke="#006CA9" stroke-width="30" stroke-linecap="round" stroke-linejoin="round"/>
<path d="M2504.49 1568.4V1663H2459.11V1499.36H2502.36V1528.23H2504.28C2507.9 1518.72 2513.98 1511.19 2522.5 1505.65C2531.02 1500.04 2541.36 1497.23 2553.5 1497.23C2564.86 1497.23 2574.77 1499.72 2583.22 1504.69C2591.67 1509.66 2598.24 1516.76 2602.93 1526C2607.62 1535.16 2609.96 1546.1 2609.96 1558.81V1663H2564.58V1566.91C2564.65 1556.89 2562.09 1549.08 2556.91 1543.47C2551.72 1537.79 2544.59 1534.95 2535.5 1534.95C2529.39 1534.95 2523.99 1536.26 2519.3 1538.89C2514.69 1541.52 2511.06 1545.35 2508.44 1550.39C2505.88 1555.37 2504.57 1561.37 2504.49 1568.4ZM2725.39 1537.5V1499.58H2872.52V1537.5H2725.39ZM2725.39 1608.24V1570.32H2872.52V1608.24H2725.39ZM2984.78 1624.65V1588.32L3075.86 1444.82H3107.18V1495.1H3088.65L3031.23 1585.98V1587.68H3160.66V1624.65H2984.78ZM3089.5 1663V1613.57L3090.35 1597.48V1444.82H3133.6V1663H3089.5Z" fill="#006CA9"/>
<path d="M1278.49 2726.4V2821H1233.11V2657.36H1276.36V2686.23H1278.28C1281.9 2676.72 1287.98 2669.19 1296.5 2663.65C1305.02 2658.04 1315.36 2655.23 1327.5 2655.23C1338.86 2655.23 1348.77 2657.72 1357.22 2662.69C1365.67 2667.66 1372.24 2674.76 1376.93 2684C1381.62 2693.16 1383.96 2704.1 1383.96 2716.81V2821H1338.58V2724.91C1338.65 2714.89 1336.09 2707.08 1330.91 2701.47C1325.72 2695.79 1318.59 2692.95 1309.5 2692.95C1303.39 2692.95 1297.99 2694.26 1293.3 2696.89C1288.69 2699.52 1285.06 2703.35 1282.44 2708.39C1279.88 2713.37 1278.57 2719.37 1278.49 2726.4Z" fill="#006CA9"/>
<path d="M516.688 293.983C500.636 293.983 487.71 289.615 477.909 280.879C468.108 272.072 461.645 259.324 458.52 242.634C455.395 225.872 455.75 205.631 459.585 181.909C463.42 158.33 469.706 138.195 478.442 121.504C487.178 104.743 497.938 91.9588 510.722 83.152C523.506 74.2741 537.852 69.8352 553.761 69.8352C569.67 69.8352 582.561 74.2741 592.433 83.152C602.376 92.0298 608.982 104.814 612.249 121.504C615.587 138.195 615.267 158.33 611.29 181.909C607.313 205.631 600.956 225.837 592.22 242.527C583.484 259.217 572.724 271.966 559.94 280.773C547.156 289.58 532.739 293.983 516.688 293.983ZM520.523 270.545C536.503 270.545 550.175 262.875 561.538 247.534C572.973 232.122 581.034 210.247 585.722 181.909C588.847 163.017 589.486 146.93 587.639 133.649C585.793 120.368 581.673 110.247 575.281 103.287C568.889 96.3267 560.438 92.8466 549.926 92.8466C534.159 92.8466 520.594 100.624 509.23 116.178C497.866 131.661 489.841 153.571 485.153 181.909C482.028 200.801 481.354 216.852 483.129 230.062C484.905 243.273 488.953 253.322 495.274 260.212C501.595 267.101 510.011 270.545 520.523 270.545ZM1083.88 72.8182L1047.65 291H1021.23L1052.77 100.517H1051.49L992.256 135.886L996.943 109.04L1057.45 72.8182H1083.88ZM1447.9 291L1451.31 271.824L1536.11 192.989C1546.06 183.756 1554.33 175.695 1560.93 168.805C1567.61 161.916 1572.8 155.453 1576.49 149.416C1580.25 143.379 1582.7 137.023 1583.84 130.347C1585.12 122.676 1584.44 116.036 1581.82 110.425C1579.19 104.814 1575.03 100.482 1569.35 97.4276C1563.67 94.3736 1556.85 92.8466 1548.9 92.8466C1540.52 92.8466 1532.88 94.5866 1525.99 98.0668C1519.1 101.476 1513.38 106.305 1508.84 112.555C1504.29 118.734 1501.31 125.943 1499.89 134.182H1474.75C1476.88 121.398 1481.74 110.176 1489.34 100.517C1497.01 90.8579 1506.42 83.3295 1517.58 77.9318C1528.8 72.5341 1540.8 69.8352 1553.58 69.8352C1566.37 69.8352 1577.2 72.5341 1586.08 77.9318C1594.95 83.3295 1601.38 90.6094 1605.36 99.7713C1609.34 108.933 1610.4 119.125 1608.56 130.347C1607.13 138.443 1604.33 146.291 1600.14 153.891C1595.95 161.49 1589.52 169.977 1580.86 179.352C1572.26 188.656 1560.62 200.02 1545.91 213.443L1488.38 265.858L1487.96 267.562H1589.38L1585.54 291H1447.9ZM2041.62 293.983C2027.41 293.983 2015.09 291.604 2004.65 286.845C1994.28 282.016 1986.54 275.304 1981.42 266.71C1976.31 258.045 1974.5 247.96 1975.99 236.455H2002.41C2001.77 243.415 2002.98 249.452 2006.03 254.565C2009.16 259.679 2013.78 263.621 2019.88 266.391C2026.06 269.161 2033.45 270.545 2042.04 270.545C2051.2 270.545 2059.8 268.947 2067.82 265.751C2075.92 262.555 2082.7 257.939 2088.17 251.902C2093.64 245.794 2097.01 238.514 2098.29 230.062C2099.43 222.463 2098.58 215.716 2095.74 209.821C2092.89 203.926 2087.99 199.31 2081.03 195.972C2074.14 192.562 2065.13 190.858 2053.97 190.858H2036.08L2039.91 167.42H2056.53C2065.2 167.42 2073.15 165.787 2080.39 162.52C2087.64 159.253 2093.68 154.672 2098.51 148.777C2103.34 142.811 2106.39 135.815 2107.67 127.79C2108.88 120.759 2108.38 114.651 2106.18 109.466C2104.05 104.21 2100.35 100.126 2095.1 97.2145C2089.91 94.3026 2083.31 92.8466 2075.28 92.8466C2067.61 92.8466 2060.08 94.2315 2052.7 97.0014C2045.38 99.7003 2039.13 103.642 2033.95 108.827C2028.76 113.94 2025.49 120.119 2024.14 127.364H1998.58C2000.78 116 2005.71 106.021 2013.38 97.4276C2021.06 88.7628 2030.39 82.0156 2041.4 77.1861C2052.48 72.2855 2064.2 69.8352 2076.56 69.8352C2090.27 69.8352 2101.56 72.6761 2110.44 78.358C2119.39 83.9687 2125.78 91.3551 2129.61 100.517C2133.45 109.608 2134.51 119.409 2132.81 129.92C2130.89 141.923 2125.96 152.08 2118 160.389C2110.05 168.699 2100.35 174.594 2088.92 178.074V179.352C2102.34 181.696 2112.07 187.875 2118.11 197.889C2124.22 207.832 2126.13 219.693 2123.86 233.472C2121.87 245.83 2117.08 256.554 2109.48 265.645C2101.88 274.665 2092.26 281.661 2080.61 286.632C2068.96 291.533 2055.96 293.983 2041.62 293.983Z" fill="#737370"/>
<path d="M79.6875 728.983C63.6364 728.983 50.7102 724.615 40.9091 715.879C31.108 707.072 24.6449 694.324 21.5199 677.634C18.3949 660.872 18.75 640.631 22.5852 616.909C26.4205 593.33 32.706 573.195 41.4418 556.504C50.1776 539.743 60.9375 526.959 73.7216 518.152C86.5057 509.274 100.852 504.835 116.761 504.835C132.67 504.835 145.561 509.274 155.433 518.152C165.376 527.03 171.982 539.814 175.249 556.504C178.587 573.195 178.267 593.33 174.29 616.909C170.313 640.631 163.956 660.837 155.22 677.527C146.484 694.217 135.724 706.966 122.94 715.773C110.156 724.58 95.7386 728.983 79.6875 728.983ZM83.5227 705.545C99.5028 705.545 113.175 697.875 124.538 682.534C135.973 667.122 144.034 645.247 148.722 616.909C151.847 598.017 152.486 581.93 150.639 568.649C148.793 555.368 144.673 545.247 138.281 538.287C131.889 531.327 123.438 527.847 112.926 527.847C97.1591 527.847 83.5938 535.624 72.2301 551.178C60.8665 566.661 52.8409 588.571 48.1534 616.909C45.0284 635.801 44.3537 651.852 46.1293 665.062C47.9048 678.273 51.9531 688.322 58.2742 695.212C64.5952 702.101 73.0114 705.545 83.5227 705.545Z" fill="#737370"/>
<path d="M83.5227 2184.98C69.3182 2184.98 56.9957 2182.6 46.5554 2177.85C36.1861 2173.02 28.4446 2166.3 23.331 2157.71C18.2173 2149.05 16.4063 2138.96 17.8977 2127.45H44.3182C43.679 2134.41 44.8864 2140.45 47.9403 2145.57C51.0653 2150.68 55.6818 2154.62 61.7898 2157.39C67.9688 2160.16 75.3551 2161.55 83.9489 2161.55C93.1108 2161.55 101.705 2159.95 109.73 2156.75C117.827 2153.56 124.609 2148.94 130.078 2142.9C135.547 2136.79 138.92 2129.51 140.199 2121.06C141.335 2113.46 140.483 2106.72 137.642 2100.82C134.801 2094.93 129.901 2090.31 122.94 2086.97C116.051 2083.56 107.031 2081.86 95.8807 2081.86H77.983L81.8182 2058.42H98.4375C107.102 2058.42 115.057 2056.79 122.301 2053.52C129.545 2050.25 135.582 2045.67 140.412 2039.78C145.241 2033.81 148.295 2026.82 149.574 2018.79C150.781 2011.76 150.284 2005.65 148.082 2000.47C145.952 1995.21 142.259 1991.13 137.003 1988.21C131.818 1985.3 125.213 1983.85 117.188 1983.85C109.517 1983.85 101.989 1985.23 94.6023 1988C87.2869 1990.7 81.0369 1994.64 75.8523 1999.83C70.6676 2004.94 67.4006 2011.12 66.0511 2018.36H40.483C42.6847 2007 47.6207 1997.02 55.2912 1988.43C62.9616 1979.76 72.3011 1973.02 83.3097 1968.19C94.3892 1963.29 106.108 1960.84 118.466 1960.84C132.173 1960.84 143.466 1963.68 152.344 1969.36C161.293 1974.97 167.685 1982.36 171.52 1991.52C175.355 2000.61 176.42 2010.41 174.716 2020.92C172.798 2032.92 167.862 2043.08 159.908 2051.39C151.953 2059.7 142.259 2065.59 130.824 2069.07V2070.35C144.247 2072.7 153.977 2078.88 160.014 2088.89C166.122 2098.83 168.04 2110.69 165.767 2124.47C163.778 2136.83 158.984 2147.55 151.385 2156.64C143.786 2165.66 134.162 2172.66 122.514 2177.63C110.866 2182.53 97.8693 2184.98 83.5227 2184.98Z" fill="#737370"/>
<path d="M8.94886 1735L12.358 1715.82L97.1591 1636.99C107.102 1627.76 115.376 1619.69 121.982 1612.81C128.658 1605.92 133.842 1599.45 137.536 1593.42C141.3 1587.38 143.75 1581.02 144.886 1574.35C146.165 1566.68 145.49 1560.04 142.862 1554.42C140.234 1548.81 136.08 1544.48 130.398 1541.43C124.716 1538.37 117.898 1536.85 109.943 1536.85C101.563 1536.85 93.9276 1538.59 87.0384 1542.07C80.1491 1545.48 74.4318 1550.31 69.8864 1556.56C65.3409 1562.73 62.358 1569.94 60.9375 1578.18H35.7955C37.9261 1565.4 42.7912 1554.18 50.3906 1544.52C58.0611 1534.86 67.4716 1527.33 78.6222 1521.93C89.8438 1516.53 101.847 1513.84 114.631 1513.84C127.415 1513.84 138.246 1516.53 147.124 1521.93C156.001 1527.33 162.429 1534.61 166.406 1543.77C170.384 1552.93 171.449 1563.12 169.602 1574.35C168.182 1582.44 165.376 1590.29 161.186 1597.89C156.996 1605.49 150.568 1613.98 141.903 1623.35C133.31 1632.66 121.662 1644.02 106.96 1657.44L49.4318 1709.86L49.0057 1711.56H150.426L146.591 1735H8.94886Z" fill="#737370"/>
<path d="M147.875 1011.82L111.653 1230H85.233L116.767 1039.52H115.489L56.2557 1074.89L60.9432 1048.04L121.455 1011.82H147.875Z" fill="#737370"/>
<line x1="303" y1="2370" x2="303.428" y2="369.944" stroke="#737370" stroke-width="10"/>
<line x1="2308" y1="375" x2="308.428" y2="374.945" stroke="#737370" stroke-width="10"/>
<line x1="2307.57" y1="2535.05" x2="308" y2="2535" stroke="#737370" stroke-width="10"/>
<line x1="2308" y1="2375" x2="308.428" y2="2374.95" stroke="#737370" stroke-width="10"/>
<line x1="2307.57" y1="1875" x2="308" y2="1874.95" stroke="#737370" stroke-width="10"/>
<line x1="2307.57" y1="1375" x2="308" y2="1374.95" stroke="#737370" stroke-width="10"/>
<line x1="2307.57" y1="875" x2="308" y2="874.945" stroke="#737370" stroke-width="10"/>
<line x1="2303" y1="2370" x2="2303" y2="370" stroke="#737370" stroke-width="10"/>
<line x1="2436" y1="2370" x2="2436" y2="370" stroke="#737370" stroke-width="10"/>
<line x1="1796.5" y1="2370.02" x2="1796.5" y2="369.981" stroke="#737370" stroke-width="10"/>
<line x1="1303" y1="2370" x2="1303" y2="370" stroke="#737370" stroke-width="10"/>
<line x1="804" y1="2370" x2="803" y2="370.003" stroke="#737370" stroke-width="10"/>
<line x1="1871.2" y1="1447.8" x2="1228.19" y2="804.796" stroke="#737370" stroke-width="15"/>
<line x1="578.697" y1="1116.06" x2="884.065" y2="810.696" stroke="#737370" stroke-width="15"/>
<line x1="1566.7" y1="2107.06" x2="1872.06" y2="1801.7" stroke="#737370" stroke-width="15"/>
<path d="M611.206 514L637 534.172L525.162 714H499.368L437 616.575L462.794 589.751L512.265 641.253L611.206 514Z" fill="#FA8F00"/>
<path d="M611.206 1982L637 2002.17L525.162 2182H499.368L437 2084.58L462.794 2057.75L512.265 2109.25L611.206 1982Z" fill="#FA8F00"/>
<path d="M1135.21 1982L1161 2002.17L1049.16 2182H1023.37L961 2084.58L986.794 2057.75L1036.26 2109.25L1135.21 1982Z" fill="#FA8F00"/>
<path d="M2106.21 1982L2132 2002.17L2020.16 2182H1994.37L1932 2084.58L1957.79 2057.75L2007.26 2109.25L2106.21 1982Z" fill="#FA8F00"/>
<path d="M1608.21 1510L1634 1530.17L1522.16 1710H1496.37L1434 1612.58L1459.79 1585.75L1509.26 1637.25L1608.21 1510Z" fill="#FA8F00"/>
<path d="M611.206 1510L637 1530.17L525.162 1710H499.368L437 1612.58L462.794 1585.75L512.265 1637.25L611.206 1510Z" fill="#FA8F00"/>
<path d="M1135.21 1510L1161 1530.17L1049.16 1710H1023.37L961 1612.58L986.794 1585.75L1036.26 1637.25L1135.21 1510Z" fill="#FA8F00"/>
<path d="M1611.21 514L1637 534.172L1525.16 714H1499.37L1437 616.575L1462.79 589.751L1512.26 641.253L1611.21 514Z" fill="#FA8F00"/>
<path d="M2106.21 514L2132 534.172L2020.16 714H1994.37L1932 616.575L1957.79 589.751L2007.26 641.253L2106.21 514Z" fill="#FA8F00"/>
<path d="M1135.21 1016L1161 1036.17L1049.16 1216H1023.37L961 1118.58L986.794 1091.75L1036.26 1143.25L1135.21 1016Z" fill="#FA8F00"/>
<path d="M2106.21 1030L2132 1050.17L2020.16 1230H1994.37L1932 1132.58L1957.79 1105.75L2007.26 1157.25L2106.21 1030Z" fill="#FA8F00"/>
</svg>
